<svg xmlns="http://www.w3.org/2000/svg" viewBox="0 0 266.55 250.5"><defs><style>.cls-1{fill:#bcbec0;}.cls-1,.cls-2,.cls-4{stroke:#f1f2f2;stroke-linecap:round;stroke-linejoin:round;}.cls-1,.cls-2{stroke-width:2px;}.cls-2,.cls-5{fill:#d1d3d4;}.cls-3,.cls-6{fill:#f1f2f2;}.cls-4{fill:none;stroke-width:3.33px;}.cls-6{font-size:32px;font-family:Mak-Bold, Mak;font-weight:700;}.cls-7{letter-spacing:-0.03em;}.cls-8{letter-spacing:-0.01em;}.cls-9{letter-spacing:-0.06em;}</style></defs><g id="OBJECT"><path class="cls-1" d="M218.46,347.06s-17.89-6.31-22.17-23.25-14.58,1.46-18.86-13.11-15.4-11.45-22.27-25c0,0,4.93,10.75,6.86,19.75s4.5,9.64,11.89,14.46,3.87,10,14.63,16.71S218.46,347.06,218.46,347.06Z" transform="translate(-103.7 -124.85)"/><path class="cls-2" d="M341.64,208.37s1.54-18.21-9.39-27.36-10.92-1.44-22.49-16.22-34.7-11.35-34.7-11.35,3.51.1,12.51,12.31,14.3,3.86,19.53,13.18,4.94,12.86,17.62,18S341.64,208.37,341.64,208.37Z" transform="translate(-103.7 -124.85)"/><path class="cls-3" d="M248.37,135.49c.07.3,0,0-.05-.06s-.1-.23-.15-.35-.24-.46-.36-.7a11.64,11.64,0,0,0-.89-1.35,14.22,14.22,0,0,0-2.25-2.34,15,15,0,0,0-5.95-2.84,28.83,28.83,0,0,0-13.73.87,32,32,0,0,0-12.28,6.64,21.82,21.82,0,0,0-4.46,5.29,10.24,10.24,0,0,0-1.6,6.3c.26,2.11,1.86,3.69,3.88,4.72a21.67,21.67,0,0,0,6.61,2A38.69,38.69,0,0,0,231.2,153a28,28,0,0,0,12.41-6,14.87,14.87,0,0,0,3.82-5.39c.16-.52.4-1,.51-1.54s.27-1.06.32-1.6.12-1.11.13-1.61S248.36,136,248.37,135.49Zm3.27-.64c0,.73,0,1.47,0,2.2s-.18,1.33-.27,2-.33,1.29-.49,1.94a18.3,18.3,0,0,1-.72,1.86,17.68,17.68,0,0,1-4.78,6.18,30.5,30.5,0,0,1-13.67,6.16,42.77,42.77,0,0,1-14.84.46,23.4,23.4,0,0,1-7.22-2.26,10.38,10.38,0,0,1-3.13-2.43l-.34-.38-.28-.45a5.85,5.85,0,0,1-.51-.91,7.35,7.35,0,0,1-.59-2,12.1,12.1,0,0,1,1.77-7.57,24.17,24.17,0,0,1,4.81-5.82,36,36,0,0,1,13-7.28,31.47,31.47,0,0,1,15-1.3,17.81,17.81,0,0,1,7.19,3.08,17.22,17.22,0,0,1,2.9,2.76,13.85,13.85,0,0,1,1.2,1.62c.18.29.36.57.52.89a7.6,7.6,0,0,1,.55,1.24Z" transform="translate(-103.7 -124.85)"/><path class="cls-4" d="M142.19,211.63A114.27,114.27,0,0,0,250,363.55" transform="translate(-103.7 -124.85)"/><path class="cls-5" d="M141.71,213s-5.67-42.13,33.57-50C175.28,163,175.28,202,141.71,213Z" transform="translate(-103.7 -124.85)"/><path class="cls-3" d="M140.83,214.43a1.93,1.93,0,0,1-.56-.63,2.05,2.05,0,0,1-.16-.41,1.94,1.94,0,0,1-.05-.2V213l0-.28,0-.55-.06-1.08c0-.71,0-1.43,0-2.14,0-1.43,0-2.86.12-4.28a62.21,62.21,0,0,1,1.14-8.47,47.16,47.16,0,0,1,6.23-15.85,39.46,39.46,0,0,1,5.34-6.67,40,40,0,0,1,6.71-5.26,46.82,46.82,0,0,1,15.78-5.84h0a.48.48,0,0,1,.56.39.28.28,0,0,1,0,.09h0a66.25,66.25,0,0,1-2.27,16,58.9,58.9,0,0,1-6.21,15,46.76,46.76,0,0,1-10.63,12.5c-.52.45-1.07.87-1.63,1.27s-1.1.83-1.68,1.21c-1.17.74-2.32,1.52-3.55,2.15-.61.33-1.2.69-1.83,1l-1.88.87-.47.22-.24.11-.33.12a13.51,13.51,0,0,1-1.4.45A18,18,0,0,1,140.83,214.43Zm1.77-2.82a10.33,10.33,0,0,1,1-.9,1.82,1.82,0,0,1,.48-.25l.15-.05.22-.09.45-.19,1.79-.75c.6-.25,1.16-.57,1.74-.85,1.18-.54,2.27-1.24,3.39-1.89.56-.33,1.08-.72,1.62-1.07s1.07-.73,1.57-1.14A44.24,44.24,0,0,0,165.46,193,56.9,56.9,0,0,0,172,178.61a64.8,64.8,0,0,0,2.8-15.6h0l.59.48a45.74,45.74,0,0,0-15.14,6.21,38,38,0,0,0-6.22,5.24,36.55,36.55,0,0,0-4.83,6.5,44.5,44.5,0,0,0-5.38,15.23,59.57,59.57,0,0,0-.8,8.1c0,1.36,0,2.71,0,4.06,0,.68.06,1.35.12,2l.09,1,.05.5,0,.24,0,.12s0,0,0-.08a.94.94,0,0,0,0-.16,1.58,1.58,0,0,0-.16-.35A1.5,1.5,0,0,0,142.6,211.61Z" transform="translate(-103.7 -124.85)"/><path class="cls-5" d="M146.07,296.38s-42.39-3.27-41.89-43.29C104.18,253.09,139.92,254.66,146.07,296.38Z" transform="translate(-103.7 -124.85)"/><path class="cls-3" d="M147.28,297.51a1.85,1.85,0,0,1-.74.44,2.41,2.41,0,0,1-.44.08h-.45l-.28,0-.54-.07-1.07-.17c-.71-.12-1.41-.25-2.11-.4-1.4-.28-2.79-.64-4.16-1a62.07,62.07,0,0,1-8-2.88A47.19,47.19,0,0,1,115.26,284a39.45,39.45,0,0,1-5.4-6.62,40.74,40.74,0,0,1-3.74-7.65,47.08,47.08,0,0,1-2.4-16.66v0a.45.45,0,0,1,.46-.43h0a40.61,40.61,0,0,1,8.15,1.38,48,48,0,0,1,7.77,2.8,44.82,44.82,0,0,1,13.54,9.54,44.3,44.3,0,0,1,5.26,6.49,20.3,20.3,0,0,1,1.12,1.77c.36.6.72,1.19,1.07,1.8.62,1.25,1.33,2.46,1.86,3.75l.84,1.91.74,2c.52,1.3.88,2.64,1.3,4s.7,2.69,1,4c0,.15.09.36.13.6l.11.7c.07.46.12,1,.15,1.42C147.35,295.73,147.32,296.66,147.28,297.51Zm-2.43-2.27c-.27-.49-.53-.89-.71-1.26a3.16,3.16,0,0,1-.2-.59,2.82,2.82,0,0,1-.07-.31,3.8,3.8,0,0,0-.07-.4c-.29-1.29-.51-2.61-.86-3.89s-.65-2.57-1.1-3.82l-.63-1.89-.74-1.84c-.45-1.25-1.08-2.42-1.63-3.62l-1-1.75a18.18,18.18,0,0,0-1-1.71,42.14,42.14,0,0,0-4.77-6.35,43.1,43.1,0,0,0-12.65-9.62,46.26,46.26,0,0,0-7.45-3,40.23,40.23,0,0,0-7.86-1.63h0l.49-.45a45.79,45.79,0,0,0,2.9,16.1,38.63,38.63,0,0,0,3.83,7.18,37,37,0,0,0,5.35,6.09,44.38,44.38,0,0,0,13.78,8.44,58.71,58.71,0,0,0,7.75,2.48c1.32.3,2.65.6,4,.82.67.11,1.33.22,2,.3l1,.12.49.05.24,0h.12s0,0-.07,0h-.18a1.39,1.39,0,0,0-.38.09A1.58,1.58,0,0,0,144.85,295.24Z" transform="translate(-103.7 -124.85)"/><path class="cls-3" d="M144.89,297.56l-30.55-32.8,32.9,30.44a1.67,1.67,0,0,1-2.26,2.45Z" transform="translate(-103.7 -124.85)"/><path class="cls-3" d="M140.67,211c1.61-3.28,3.31-6.47,5.07-9.64s3.58-6.3,5.5-9.37,3.92-6.1,6.1-9a56,56,0,0,1,7.18-8.13.13.13,0,0,1,.18,0,.14.14,0,0,1,0,.18,54.55,54.55,0,0,0-6.52,8.53c-2,3-3.71,6.13-5.39,9.3s-3.26,6.39-4.77,9.64-3,6.54-4.31,9.83h0a1.66,1.66,0,1,1-3.08-1.25A.37.37,0,0,1,140.67,211Z" transform="translate(-103.7 -124.85)"/><path class="cls-3" d="M275.27,352.19c-6.07,2-12.4,2.75-18.69,3.25l-1.18.08c-.4,0-.8,0-1.11.08a8.42,8.42,0,0,0-2,.4,6.78,6.78,0,0,0-3.1,2.11,7.76,7.76,0,0,0-1.16,7.34,9.6,9.6,0,0,0,5.37,5.68,21.5,21.5,0,0,0,8.55,1.38,63,63,0,0,0,9.13-.83,91.14,91.14,0,0,0,9.07-1.86h0a.8.8,0,0,1,1,.59.82.82,0,0,1-.51,1,66.64,66.64,0,0,1-18.62,3.94,32.23,32.23,0,0,1-4.9-.11,17.87,17.87,0,0,1-5-1.23,12.53,12.53,0,0,1-7.17-7.51,10.7,10.7,0,0,1,1.77-10.37,9.59,9.59,0,0,1,4.6-3,11.53,11.53,0,0,1,2.64-.47c.46,0,.84-.05,1.23-.06l1.16,0c3.09-.08,6.19-.24,9.26-.55a73.43,73.43,0,0,0,9.14-1.32h0a.8.8,0,0,1,.94.61A.79.79,0,0,1,275.27,352.19Z" transform="translate(-103.7 -124.85)"/><path class="cls-3" d="M277.57,361.06A115.41,115.41,0,0,1,250,365.21a1.67,1.67,0,1,1-.1-3.33h.1a113,113,0,0,0,27.17-2.46.86.86,0,0,1,1,.65A.84.84,0,0,1,277.57,361.06Z" transform="translate(-103.7 -124.85)"/><path class="cls-3" d="M346.51,274.35A100.1,100.1,0,0,0,348.33,236a99.06,99.06,0,0,0-12.84-36.29A100.48,100.48,0,0,0,274.93,154a.51.51,0,0,1-.38-.64.53.53,0,0,1,.64-.38,101.44,101.44,0,0,1,35.52,16.69,102.29,102.29,0,0,1,39,105.5,1.66,1.66,0,1,1-3.24-.74Z" transform="translate(-103.7 -124.85)"/><path class="cls-3" d="M153.67,227.25a100.11,100.11,0,0,0-2.89,18.06,77.78,77.78,0,0,0-.12,9.16l.15,4.59c.14,1.52.33,3,.49,4.56l.25,2.28.13,1.14c.06.38.14.75.21,1.13l.87,4.51c.15.75.28,1.5.44,2.25l.62,2.22,1.22,4.43c.41,1.47,1,2.89,1.51,4.34s1,2.9,1.62,4.3l1.89,4.19.95,2.1,1.11,2,2.21,4c.75,1.35,1.65,2.59,2.47,3.89l1.26,1.93a21.13,21.13,0,0,0,1.31,1.89l2.81,3.66c.47.61.92,1.24,1.41,1.82l1.54,1.72,3.07,3.44c1.07,1.11,2.21,2.15,3.3,3.23l1.67,1.6.83.8.89.73A103.1,103.1,0,0,0,216.58,346a.44.44,0,0,1,.25.54.43.43,0,0,1-.53.25A104.55,104.55,0,0,1,184,328.38l-.92-.74c-.3-.25-.57-.52-.86-.79l-1.72-1.59c-1.13-1.08-2.3-2.11-3.4-3.22l-3.19-3.45-1.59-1.72c-.51-.59-1-1.22-1.47-1.83l-2.91-3.68a19.45,19.45,0,0,1-1.37-1.9l-1.32-1.94c-.86-1.31-1.8-2.57-2.58-3.93l-2.33-4.08-1.17-2-1-2.12-2-4.26c-.67-1.41-1.15-2.91-1.73-4.37s-1.17-2.91-1.62-4.42l-1.33-4.51-.66-2.26c-.18-.77-.33-1.54-.5-2.3l-1-4.62c-.07-.38-.16-.76-.23-1.15l-.15-1.17-.3-2.34c-.2-1.55-.42-3.11-.59-4.67l-.22-4.71a80.34,80.34,0,0,1,0-9.44,103.45,103.45,0,0,1,2.67-18.68,1.67,1.67,0,0,1,3.24.77Z" transform="translate(-103.7 -124.85)"/><path class="cls-3" d="M229.43,305.9h64.93l-.25,1.08a2.74,2.74,0,0,1-2.67,2.12h-62a1.6,1.6,0,0,1-1.6-1.6h0A1.6,1.6,0,0,1,229.43,305.9Z" transform="translate(-103.7 -124.85)"/><path class="cls-3" d="M229.43,305.64l64.93-.11h.47l-.11.45-.25,1.1a3.16,3.16,0,0,1-2.69,2.38c-1.58,0-3,0-4.53,0l-9,0-18,0-18,0-9,0h-3.92a2,2,0,0,1-.72-.12,2.09,2.09,0,0,1,.7-4.07Zm0,.76a1.11,1.11,0,0,0-.37,2.15,1.18,1.18,0,0,0,.39.06h12.9l18,0,18,0,9,0c1.48,0,3,0,4.45,0a2.39,2.39,0,0,0,1.63-.93,2.37,2.37,0,0,0,.41-.88l.26-1.09.36.46-64.93-.12Z" transform="translate(-103.7 -124.85)"/><path class="cls-3" d="M210.13,209.53h33.12l-.25,1.08a2.75,2.75,0,0,1-2.67,2.12h-30.2a1.61,1.61,0,0,1-1.61-1.6h0A1.6,1.6,0,0,1,210.13,209.53Z" transform="translate(-103.7 -124.85)"/><path class="cls-3" d="M210.13,209.27l33.12-.11h.47l-.11.45-.29,1.23a3.28,3.28,0,0,1-.68,1.24,3.18,3.18,0,0,1-2.52,1l-5,0-10,0-10,0h-5a2.09,2.09,0,0,1,0-4.18Zm0,.76a1.11,1.11,0,0,0,0,2.22h5l10,0,10,0,5,0a2.44,2.44,0,0,0,2-.77,2.55,2.55,0,0,0,.52-.94l.29-1.2.35.45-33.12-.11Z" transform="translate(-103.7 -124.85)"/><text class="cls-6" transform="translate(88.25 125.2)">F<tspan class="cls-7" x="19.42" y="0">r</tspan><tspan x="35.84" y="0">esh </tspan><tspan class="cls-8" x="5.23" y="38.4">B</tspan><tspan x="28.59" y="38.4">i</tspan><tspan class="cls-9" x="37.04" y="38.4">t</tspan><tspan x="52.94" y="38.4">es</tspan></text><path class="cls-4" d="M296.39,355.83a114.28,114.28,0,0,0,44.38-180.92" transform="translate(-103.7 -124.85)"/><path class="cls-5" d="M358,297.46s25.26,34.2-5.35,60C352.6,357.45,330.41,329.4,358,297.46Z" transform="translate(-103.7 -124.85)"/><path class="cls-3" d="M358,295.79a2.07,2.07,0,0,1,.81.28,2,2,0,0,1,.36.29l.13.15.07.09.08.11.15.23.3.46.57.92c.38.61.73,1.23,1.08,1.86.7,1.24,1.33,2.52,1.95,3.81a61.41,61.41,0,0,1,3.07,8,47,47,0,0,1,2.17,16.9,39.33,39.33,0,0,1-1.48,8.41,40.81,40.81,0,0,1-3.34,7.84,47,47,0,0,1-11,12.71h0a.46.46,0,0,1-.64-.06v0h0a41.52,41.52,0,0,1-4.29-7.07,47.68,47.68,0,0,1-3-7.72,44.83,44.83,0,0,1-1.64-16.47,43.44,43.44,0,0,1,1.47-8.23,20.8,20.8,0,0,1,.6-2c.22-.66.43-1.33.66-2,.54-1.28,1-2.61,1.62-3.85l.9-1.9,1-1.83c.63-1.25,1.42-2.4,2.14-3.59s1.59-2.29,2.38-3.43a3.69,3.69,0,0,1,.37-.49l.45-.54c.31-.36.64-.71,1-1.05A27,27,0,0,1,358,295.79Zm-.12,3.33c-.2.52-.33,1-.5,1.37a3.44,3.44,0,0,1-.3.53,2.43,2.43,0,0,1-.2.25l-.25.32c-.79,1.07-1.64,2.1-2.38,3.19s-1.53,2.18-2.17,3.34l-1,1.71-.91,1.76c-.65,1.16-1.12,2.4-1.68,3.61l-.7,1.86a19.74,19.74,0,0,0-.63,1.88,41,41,0,0,0-1.69,7.76,43.3,43.3,0,0,0,1,15.86,47,47,0,0,0,2.6,7.6,40.67,40.67,0,0,0,3.91,7h0l-.66-.07a45.83,45.83,0,0,0,10.28-12.73,38.88,38.88,0,0,0,2.92-7.59,36.38,36.38,0,0,0,1.11-8A44.52,44.52,0,0,0,364,312.8a60.08,60.08,0,0,0-3.2-7.48c-.63-1.2-1.27-2.39-2-3.55q-.53-.87-1.08-1.71l-.56-.83-.28-.41-.15-.19-.07-.1.05.06.12.13a1.56,1.56,0,0,0,.31.23A1.48,1.48,0,0,0,357.89,299.12Z" transform="translate(-103.7 -124.85)"/><path class="cls-3" d="M296.87,357.42c-3.54.93-7.05,1.73-10.61,2.47s-7.1,1.42-10.68,2-7.18,1-10.79,1.27a55.5,55.5,0,0,1-10.86-.11.13.13,0,0,1-.11-.14.14.14,0,0,1,.14-.12,55,55,0,0,0,10.72-.65c3.55-.49,7.06-1.2,10.56-2s7-1.71,10.41-2.69,6.89-2,10.25-3.17h0a1.67,1.67,0,0,1,1.07,3.16Z" transform="translate(-103.7 -124.85)"/></g></svg>